<?xml version="1.0" encoding="UTF-8" standalone="no"?>
<svg
   version="1.0"
   width="1222.000000pt"
   height="1166.000000pt"
   viewBox="0 0 1222.000000 1166.000000"
   preserveAspectRatio="xMidYMid meet"
   id="svg6"
   sodipodi:docname="car_repair_image_v 2.svg"
   inkscape:version="1.2.2 (b0a84865, 2022-12-01)"
   xmlns:inkscape="http://www.inkscape.org/namespaces/inkscape"
   xmlns:sodipodi="http://sodipodi.sourceforge.net/DTD/sodipodi-0.dtd"
   xmlns="http://www.w3.org/2000/svg"
   xmlns:svg="http://www.w3.org/2000/svg">
  <defs
     id="defs10" />
  <sodipodi:namedview
     id="namedview8"
     pagecolor="#ffffff"
     bordercolor="#000000"
     borderopacity="0.25"
     inkscape:showpageshadow="2"
     inkscape:pageopacity="0.0"
     inkscape:pagecheckerboard="0"
     inkscape:deskcolor="#d1d1d1"
     inkscape:document-units="pt"
     showgrid="false"
     inkscape:zoom="0.26461874"
     inkscape:cx="500.72039"
     inkscape:cy="668.88687"
     inkscape:window-width="1440"
     inkscape:window-height="766"
     inkscape:window-x="187"
     inkscape:window-y="178"
     inkscape:window-maximized="0"
     inkscape:current-layer="svg6" />
  <g
     transform="translate(0.000000,1166.000000) scale(0.100000,-0.100000)"
     fill="#000000"
     stroke="none"
     id="g4"
     style="fill:#000000">
    <path
       d="M5306 11238 c-3 -7 -10 -67 -16 -133 -7 -66 -16 -156 -20 -200 -5 -44 -13 -145 -20 -225 -20 -271 -29 -309 -82 -373 -27 -32 -82 -52 -294 -107 -246 -64 -254 -66 -344 -95 -168 -54 -285 -69 -333 -43 -36 19 -60 51 -268 360 -194 289 -242 348 -278 348 -21 0 -212 -92 -346 -167 -49 -28 -112 -63 -140 -78 -148 -83 -524 -332 -532 -352 -3 -8 25 -76 62 -151 234 -472 324 -662 332 -702 22 -103 -37 -173 -131 -156 -48 9 -80 38 -110 98 -23 46 -26 64 -26 162 0 211 -39 338 -146 477 -85 110 -225 215 -577 430 -156 95 -143 88 -451 278 -273 168 -339 193 -437 159 -90 -30 -224 -160 -274 -265 -16 -33 -16 -33 38 -115 30 -46 92 -144 139 -218 47 -74 152 -238 233 -365 81 -126 193 -302 248 -390 246 -388 290 -427 512 -447 283 -25 368 -55 417 -151 31 -62 30 -120 -5 -154 -26 -27 -32 -28 -115 -27 -74 1 -106 8 -208 42 -67 23 -164 60 -215 83 -155 69 -296 118 -352 125 -62 7 -131 -17 -181 -64 -83 -78 -216 -290 -345 -551 -128 -255 -156 -321 -144 -329 9 -6 206 -179 535 -470 150 -133 150 -132 120 -284 -21 -106 -29 -160 -58 -358 -33 -230 -69 -306 -154 -330 -36 -10 -323 -31 -695 -50 -115 -6 -214 -15 -220 -21 -6 -6 -11 -235 -13 -647 -4 -710 -6 -685 65 -739 l36 -28 246 -7 c135 -3 310 -10 388 -14 169 -8 203 -22 240 -95 31 -59 192 -646 200 -725 3 -36 1 -75 -6 -96 -23 -69 -35 -78 -431 -323 -281 -174 -320 -221 -270 -323 102 -206 277 -502 420 -707 87 -125 144 -192 184 -216 68 -42 189 -17 616 126 123 41 239 75 258 75 53 0 85 -23 246 -174 206 -193 233 -217 293 -268 82 -68 98 -93 97 -158 0 -59 0 -58 -111 -270 -77 -146 -180 -393 -195 -465 -13 -66 5 -125 52 -170 57 -55 591 -411 700 -467 64 -33 164 -52 227 -42 64 9 126 55 225 169 97 110 151 184 246 338 117 190 156 223 251 214 31 -3 148 -28 261 -56 113 -27 223 -53 245 -56 150 -23 233 -51 263 -89 25 -32 26 -43 58 -531 15 -226 30 -414 34 -418 8 -9 31 -15 155 -42 181 -40 241 -46 440 -46 110 1 214 3 230 6 17 3 94 9 172 15 148 10 194 22 229 61 20 22 46 89 57 149 3 14 26 108 51 210 118 469 119 475 180 538 54 58 100 72 446 142 25 5 87 18 139 30 126 27 202 26 252 -2 46 -25 86 -82 199 -278 169 -295 188 -326 216 -354 16 -15 40 -33 54 -38 35 -14 104 -11 147 7 157 66 691 440 916 641 l37 34 -144 363 c-79 199 -148 384 -155 411 -22 88 17 178 116 269 71 66 190 146 283 190 80 39 90 41 175 41 101 0 140 -10 370 -101 164 -65 339 -147 432 -204 54 -33 68 -38 78 -27 16 18 127 198 205 333 64 110 259 494 358 701 43 91 52 120 52 165 0 96 -19 114 -375 359 -329 227 -354 267 -305 486 11 49 31 139 45 199 47 210 77 285 147 361 76 83 181 113 393 114 190 0 536 37 558 59 17 17 23 646 8 883 -18 308 -34 479 -45 493 -15 19 -360 55 -626 64 -234 9 -269 17 -309 67 -31 40 -47 80 -76 198 -73 287 -72 441 4 582 41 78 110 147 299 303 141 115 208 179 266 248 19 23 19 24 -12 91 -45 96 -56 190 -37 306 19 121 50 211 150 441 35 81 85 265 85 316 0 10 -6 19 -13 19 -6 0 -66 -24 -132 -54 -159 -70 -445 -184 -470 -187 -53 -4 -65 2 -91 46 -33 57 -74 86 -130 93 -62 7 -95 -5 -364 -130 -321 -149 -330 -152 -415 -152 -73 0 -86 3 -155 39 -60 31 -98 62 -195 160 -197 200 -265 316 -265 453 0 150 73 227 401 418 227 132 763 446 1029 602 208 122 253 177 216 265 -26 63 -95 98 -281 141 -639 147 -1055 190 -1455 151 -165 -17 -229 -28 -420 -75 -203 -50 -472 -166 -660 -285 -132 -84 -176 -120 -330 -271 -176 -172 -211 -185 -401 -144 -297 63 -306 67 -327 138 -6 20 -20 107 -32 192 -11 85 -25 184 -30 220 -5 36 -17 121 -25 190 -8 69 -19 157 -25 195 -5 39 -12 94 -15 123 l-7 52 -604 0 c-475 0 -605 -3 -608 -12z m1071 -148 c63 -38 67 -59 123 -665 20 -208 43 -269 125 -325 68 -47 196 -103 308 -135 54 -16 94 -32 90 -36 -13 -13 -253 9 -335 30 -131 34 -201 80 -243 160 -31 60 -44 153 -55 391 -17 380 -21 398 -100 438 -43 22 -51 22 -385 22 -349 -1 -351 -1 -382 -40 -19 -24 -41 -150 -58 -330 -41 -446 -62 -540 -132 -603 -17 -14 -239 -85 -543 -173 -30 -8 -66 -20 -80 -25 -57 -20 -389 -100 -440 -105 l-55 -6 -46 49 c-56 58 -161 204 -302 418 -173 262 -191 282 -266 292 -32 4 -55 -2 -123 -35 -46 -22 -103 -54 -128 -70 -304 -198 -348 -231 -374 -286 -24 -50 -20 -94 18 -198 54 -150 73 -190 239 -510 47 -91 39 -158 -27 -234 -59 -69 -271 -156 -215 -88 7 9 45 40 85 70 121 91 130 144 50 294 -144 269 -294 612 -304 697 -4 38 -1 46 26 70 56 52 543 353 690 427 127 64 162 49 278 -124 194 -289 429 -579 483 -598 42 -15 94 -5 341 63 345 94 358 98 501 157 124 50 173 91 188 155 14 60 28 197 41 383 20 305 32 436 42 453 5 10 19 22 31 27 12 5 220 9 462 9 419 1 442 0 472 -19z m3163 -275 c187 -24 344 -53 485 -90 101 -27 260 -77 268 -85 8 -7 -58 -48 -228 -142 -44 -25 -233 -130 -420 -235 -187 -104 -457 -255 -600 -335 -143 -80 -278 -155 -300 -168 -22 -12 -76 -43 -120 -68 -218 -123 -285 -195 -320 -344 -55 -233 30 -459 362 -960 126 -190 212 -286 291 -325 52 -25 66 -28 167 -27 90 0 126 5 200 28 107 32 387 170 1010 495 72 38 225 117 340 176 116 59 214 112 220 116 5 5 17 9 28 9 19 0 19 2 -5 -80 -67 -219 -207 -534 -358 -806 -173 -312 -588 -950 -708 -1090 -66 -76 -181 -173 -247 -206 -70 -36 -188 -68 -302 -82 -153 -19 -245 -13 -633 44 -189 27 -468 30 -591 5 -227 -45 -384 -117 -549 -250 -107 -87 -158 -115 -207 -115 -66 0 -71 3 -359 254 -533 463 -564 494 -564 564 0 36 22 90 64 156 104 164 252 470 327 676 146 398 209 670 254 1100 47 447 88 638 184 859 63 145 159 282 286 405 120 117 235 197 412 285 287 144 591 217 1063 255 92 8 429 -4 550 -19z m-8245 -149 c19 -8 153 -95 297 -192 145 -98 360 -243 478 -322 118 -80 251 -171 296 -203 173 -124 219 -211 239 -449 9 -107 29 -188 66 -267 35 -74 66 -113 134 -165 51 -41 256 -234 535 -503 85 -82 207 -199 270 -260 63 -60 187 -180 275 -265 247 -240 610 -587 710 -679 185 -171 267 -172 458 -7 105 91 138 109 198 110 65 1 84 -20 115 -123 52 -170 134 -288 265 -381 73 -51 189 -93 344 -126 166 -35 304 -125 460 -300 38 -44 101 -113 139 -154 38 -41 88 -95 110 -120 51 -56 259 -283 266 -290 3 -3 84 -90 180 -195 95 -104 208 -226 250 -270 41 -44 136 -145 210 -225 74 -80 169 -181 211 -225 41 -44 145 -154 229 -245 84 -91 203 -217 264 -281 61 -63 147 -153 192 -200 44 -46 98 -107 118 -134 68 -88 50 -132 -153 -390 -231 -293 -614 -666 -756 -735 -162 -80 -250 -44 -495 202 -69 69 -564 569 -1100 1110 -536 540 -1043 1052 -1128 1137 -84 85 -163 172 -176 195 -23 40 -49 137 -61 226 -24 178 -80 288 -187 368 -65 48 -163 87 -243 97 -75 9 -109 26 -124 64 -16 38 -10 49 77 134 39 38 80 89 92 114 46 98 49 234 8 346 -16 43 -43 83 -107 155 -76 86 -377 407 -456 487 -16 17 -79 82 -140 145 -60 63 -177 185 -260 270 -82 85 -260 270 -395 410 -444 462 -466 483 -550 523 -84 39 -151 60 -255 77 -178 29 -281 81 -376 191 -30 35 -130 168 -220 294 -91 127 -263 366 -382 531 -119 166 -221 313 -227 328 -17 47 -11 65 38 111 91 86 186 115 267 81z m8821 -225 c-17 -27 -848 -536 -1126 -689 -473 -260 -555 -320 -616 -450 -46 -98 -61 -72 -23 41 24 71 79 149 141 200 38 30 172 117 182 117 2 0 39 19 82 43 44 24 106 58 139 77 270 147 943 519 1085 598 125 70 146 80 136 63z m-3976 -1492 c170 -13 349 -36 419 -55 83 -21 238 -84 253 -101 11 -14 10 -15 -15 -9 -32 8 -140 25 -362 58 -133 20 -189 22 -485 22 -356 0 -397 -4 -683 -60 -201 -40 -485 -125 -612 -183 -11 -5 -63 -28 -115 -51 -173 -76 -378 -188 -548 -302 -40 -26 -75 -48 -77 -48 -3 0 -5 8 -5 17 0 27 112 127 213 189 131 82 411 223 557 282 510 204 967 280 1460 241z m4226 -140 c30 -59 13 -76 -181 -180 -319 -171 -650 -309 -738 -309 -43 0 -77 35 -77 77 0 56 77 122 224 193 235 113 526 227 661 257 52 12 92 -1 111 -38z m-8671 -67 c50 -22 119 -53 155 -70 36 -16 88 -40 115 -52 28 -12 79 -36 115 -52 195 -90 315 -91 437 -5 24 17 45 28 48 25 6 -6 -59 -115 -88 -147 -27 -29 -77 -51 -115 -51 -46 0 -325 103 -489 180 -194 92 -260 94 -343 10 -63 -63 -234 -322 -277 -419 -34 -74 -41 -167 -19 -225 23 -60 82 -112 261 -233 221 -149 297 -237 324 -379 9 -46 9 -80 0 -135 -9 -59 -85 -422 -129 -619 -5 -19 -15 -69 -24 -111 -20 -100 -51 -181 -79 -206 -63 -58 -71 -59 -632 -81 -222 -9 -246 -15 -279 -71 -18 -32 -21 -66 -32 -404 -14 -428 -14 -431 60 -465 23 -11 67 -25 97 -31 29 -6 119 -24 199 -41 80 -17 165 -35 190 -40 25 -6 61 -14 80 -19 l35 -8 -40 -8 c-45 -10 -413 10 -490 26 -206 42 -235 51 -253 80 -10 15 -13 129 -12 490 0 547 3 571 71 620 28 20 50 23 173 30 311 17 365 20 451 30 157 17 269 52 306 95 22 26 37 69 49 139 5 33 21 116 35 185 55 271 86 466 82 518 -6 90 -48 137 -281 317 -190 147 -334 264 -358 294 -58 68 -48 130 45 282 127 210 370 561 401 581 43 27 101 19 211 -30z m4455 -787 c269 -27 422 -66 479 -122 53 -53 30 -63 -66 -29 -142 51 -224 69 -403 91 -326 41 -781 -17 -1035 -130 -17 -8 -44 -19 -60 -25 -68 -25 -97 -38 -244 -112 -85 -43 -156 -76 -158 -74 -5 5 71 76 127 119 304 229 818 336 1360 282z m100 -134 c222 -42 299 -72 324 -126 21 -45 16 -66 -51 -197 -113 -218 -301 -431 -449 -506 -126 -64 -290 -20 -436 116 -81 77 -126 143 -173 253 -44 105 -76 150 -124 177 -86 49 -185 20 -309 -91 -40 -36 -88 -72 -107 -81 -75 -36 -215 -5 -215 47 0 28 21 48 127 120 136 93 353 199 468 228 17 4 62 16 100 27 66 19 220 47 310 56 103 10 433 -4 535 -23z m-2830 -41 c0 -27 -32 -127 -55 -168 -14 -26 -55 -84 -91 -127 -295 -360 -462 -799 -518 -1365 -18 -178 -21 -523 -6 -685 22 -232 41 -413 50 -475 5 -36 14 -99 20 -140 5 -41 17 -120 25 -174 15 -97 13 -125 -5 -96 -10 15 -68 192 -88 265 -34 124 -43 161 -66 275 -170 852 -10 1743 422 2345 92 129 248 321 274 339 26 18 38 20 38 6z m708 -742 c15 -15 15 -63 1 -91 -7 -12 -33 -49 -59 -82 -173 -220 -277 -488 -322 -835 -17 -134 -15 -519 5 -740 10 -101 17 -196 17 -210 -1 -23 -2 -22 -16 10 -28 62 -72 207 -93 302 -75 356 -65 705 32 1063 73 267 150 405 298 534 72 62 110 76 137 49z m6030 -33 c42 -35 70 -109 82 -216 21 -196 39 -242 113 -303 71 -57 144 -86 297 -120 41 -9 91 -21 110 -26 19 -5 100 -16 180 -25 289 -32 321 -41 363 -99 20 -29 22 -46 29 -231 3 -110 6 -321 7 -470 0 -243 -1 -274 -18 -311 -21 -46 -56 -74 -116 -93 -40 -13 -656 -30 -645 -18 3 3 53 19 110 36 405 114 451 131 474 166 8 12 23 51 33 86 26 96 26 529 -1 608 -25 73 -74 125 -143 151 -59 22 -242 43 -473 55 -138 7 -254 22 -285 37 -73 37 -100 101 -110 263 -3 55 -13 150 -21 210 -30 213 -41 310 -37 318 7 12 20 8 51 -18z m-5934 -171 c22 -22 20 -41 -14 -104 -93 -171 -102 -196 -98 -269 6 -112 34 -137 265 -244 72 -34 137 -93 185 -168 56 -90 73 -144 73 -239 0 -72 -4 -93 -27 -141 -39 -79 -113 -155 -293 -304 -86 -71 -207 -171 -267 -222 -61 -51 -114 -90 -118 -88 -13 8 -48 162 -81 355 -17 98 -17 498 0 600 48 283 109 503 185 659 48 100 119 179 163 181 6 0 19 -7 27 -16z m4877 -404 c31 -43 57 -163 101 -465 15 -106 14 -420 -2 -545 -31 -242 -99 -469 -200 -671 -22 -43 -45 -79 -51 -79 -7 0 -8 7 -4 18 43 112 112 371 147 557 19 105 22 151 22 375 -1 266 -8 339 -60 641 -19 111 -22 153 -14 173 12 33 35 31 61 -4z m-1096 4 c48 -49 126 -249 150 -388 37 -214 -4 -498 -96 -676 -33 -62 -35 -58 -15 20 21 80 46 262 46 330 0 32 -7 111 -15 174 -23 174 -49 276 -104 405 -35 83 -37 98 -15 129 18 26 27 27 49 6z m1412 -114 c30 -104 40 -160 62 -355 39 -340 36 -657 -9 -954 -113 -749 -427 -1361 -984 -1917 -287 -286 -528 -463 -871 -639 -371 -190 -721 -302 -1140 -364 -234 -35 -321 -41 -556 -41 -228 0 -301 5 -524 36 -457 63 -890 215 -1290 451 -292 173 -490 328 -740 578 -348 348 -614 743 -799 1184 -83 200 -116 313 -173 596 -21 105 -22 259 -3 295 13 24 14 23 28 -35 316 -1363 1373 -2475 2687 -2825 285 -76 506 -103 835 -103 362 0 596 33 935 134 750 221 1413 691 1863 1320 144 201 313 513 398 732 19 51 46 119 59 152 51 133 125 412 159 595 62 343 75 814 31 1133 -8 59 -15 118 -15 130 0 21 1 21 13 -3 7 -14 23 -59 34 -100z m-1589 -13 c32 -34 66 -126 98 -262 50 -218 44 -525 -16 -737 -29 -102 -61 -87 -259 121 -193 202 -294 320 -322 378 -26 54 -23 135 7 176 10 15 82 79 159 141 77 63 153 127 169 143 71 68 125 82 164 40z m-2921 -1272 c202 -198 432 -423 511 -499 78 -77 142 -142 142 -146 0 -3 -26 -35 -57 -71 -32 -36 -175 -202 -318 -370 -143 -167 -271 -317 -286 -334 -15 -16 -93 -109 -175 -205 -82 -96 -151 -177 -154 -180 -3 -3 -54 -62 -114 -132 -59 -71 -113 -128 -120 -128 -6 0 -44 16 -84 35 -336 161 -665 451 -921 810 -81 115 -201 307 -201 324 0 5 15 22 33 38 33 28 599 536 687 617 25 23 158 142 295 266 138 124 268 241 290 261 61 57 89 78 97 76 4 -1 173 -164 375 -362z m5429 -104 c-8 -25 -31 -103 -50 -171 -19 -69 -60 -213 -91 -320 -82 -280 -79 -342 19 -442 23 -24 143 -115 267 -203 264 -188 315 -233 329 -286 16 -57 5 -87 -130 -365 -66 -136 -120 -248 -120 -250 0 -2 -39 -83 -87 -181 -97 -199 -142 -256 -212 -268 -59 -10 -104 7 -256 96 -239 140 -364 189 -484 189 -73 0 -196 -35 -278 -80 -109 -59 -330 -219 -391 -283 -88 -94 -110 -178 -78 -299 21 -79 21 -80 112 -263 97 -198 118 -268 112 -375 -6 -93 -27 -138 -99 -206 -68 -63 -547 -381 -614 -407 -93 -35 -175 -19 -234 46 -69 76 -184 249 -261 396 -99 188 -119 214 -173 236 -53 21 -63 20 -382 -61 -143 -36 -279 -70 -302 -74 -79 -17 -146 -43 -202 -81 -104 -69 -133 -144 -221 -578 -54 -263 -57 -274 -95 -320 -61 -72 -138 -89 -430 -97 -312 -9 -541 18 -590 70 -23 24 -42 63 -53 106 -20 80 -41 358 -47 615 -5 221 -4 245 8 210 8 -22 22 -92 32 -155 9 -63 21 -131 25 -150 4 -19 15 -89 25 -155 37 -269 59 -329 134 -373 43 -25 51 -26 290 -35 362 -13 432 -1 477 85 42 81 134 532 134 658 0 117 47 208 130 250 51 26 241 81 430 125 63 15 167 41 230 57 202 53 234 60 310 65 140 9 209 -40 353 -255 43 -64 108 -166 144 -226 36 -59 79 -124 95 -142 53 -60 69 -55 364 119 313 185 330 196 346 225 20 38 11 98 -31 200 -112 276 -211 606 -211 706 0 69 35 122 137 207 211 177 651 469 727 483 41 8 83 -8 170 -63 177 -112 464 -231 558 -231 47 0 75 32 212 240 183 277 238 375 244 430 8 88 -5 101 -415 393 -204 146 -244 184 -263 252 -14 49 -13 50 52 230 104 287 180 473 289 705 49 104 54 111 57 81 2 -19 -3 -54 -12 -80z m-8757 22 c17 -21 31 -41 31 -44 0 -4 46 -108 101 -230 172 -379 202 -462 202 -549 1 -52 -5 -77 -29 -125 -52 -106 -126 -167 -439 -365 -115 -72 -169 -120 -196 -176 -21 -44 -21 -51 -9 -113 27 -144 169 -441 242 -507 37 -33 40 -34 126 -34 102 0 169 17 333 85 241 100 272 108 399 109 175 1 165 8 653 -470 274 -268 306 -309 307 -379 0 -18 -31 -94 -76 -185 -185 -377 -213 -440 -225 -496 -12 -59 -11 -62 17 -113 32 -59 90 -108 224 -188 183 -110 454 -233 510 -233 62 0 97 28 207 166 58 74 108 132 110 130 7 -7 -186 -312 -219 -347 -141 -147 -428 -66 -884 248 -139 96 -170 126 -189 179 -14 42 -3 96 37 184 163 354 258 596 258 659 0 68 -22 96 -304 378 -359 360 -338 355 -801 208 -434 -138 -425 -135 -488 -111 -83 31 -112 76 -319 489 -60 119 -113 230 -119 245 -41 107 -24 188 54 266 49 48 120 93 309 196 117 64 200 144 245 239 34 70 37 84 41 187 3 62 -1 134 -7 165 -15 70 -96 360 -131 469 -15 47 -25 88 -23 93 8 14 22 6 52 -30z m4288 -609 c95 -45 503 -557 503 -630 0 -24 -3 -26 -27 -18 -58 16 -156 7 -233 -21 -41 -15 -110 -36 -154 -48 l-78 -20 -107 21 c-58 11 -148 30 -200 41 -105 23 -167 26 -224 10 -22 -6 -42 -8 -45 -5 -3 4 17 39 44 79 392 570 420 607 464 607 12 0 38 -7 57 -16z m543 -729 c23 -8 71 -35 105 -60 60 -43 118 -106 481 -530 71 -82 142 -165 159 -183 32 -36 49 -61 43 -67 -3 -4 -75 10 -147 27 -65 17 -121 64 -386 325 -288 285 -304 296 -460 301 -183 7 -643 -16 -721 -36 -133 -33 -235 -112 -396 -306 -56 -66 -128 -150 -162 -185 -60 -62 -170 -151 -187 -151 -16 0 -10 119 7 152 27 52 112 166 219 293 55 66 124 150 153 186 68 88 155 167 223 204 51 28 60 30 164 30 61 0 133 -6 160 -13 28 -7 90 -19 139 -26 96 -14 189 -5 331 33 87 24 217 26 275 6z"
       id="path2"
       style="fill:#000000;fill-opacity:0.82978731" />
  </g>
</svg>
